HIERARCHY
ROOT Hips
{
	OFFSET 0.00000 0.00000 0.00000
	CHANNELS 6 Xposition Yposition Zposition Zrotation Yrotation Xrotation 
	JOINT LHipJoint
	{
		OFFSET 0 0 0
		CHANNELS 3 Zrotation Yrotation Xrotation
		JOINT LeftUpLeg
		{
			OFFSET 1.65412 -1.54119 0.76744
			CHANNELS 3 Zrotation Yrotation Xrotation
			JOINT LeftLeg
			{
				OFFSET 2.19550 -6.03209 0.00000
				CHANNELS 3 Zrotation Yrotation Xrotation
				JOINT LeftFoot
				{
					OFFSET 2.38814 -6.56138 0.00000
					CHANNELS 3 Zrotation Yrotation Xrotation
					JOINT LeftToeBase
					{
						OFFSET 0.17337 -0.47632 1.75875
						CHANNELS 3 Zrotation Yrotation Xrotation
						End Site
						{
							OFFSET 0.00000 -0.00000 0.92050
						}
					}
				}
			}
		}
	}
	JOINT RHipJoint
	{
		OFFSET 0 0 0
		CHANNELS 3 Zrotation Yrotation Xrotation
		JOINT RightUpLeg
		{
			OFFSET -1.40291 -1.54119 0.76744
			CHANNELS 3 Zrotation Yrotation Xrotation
			JOINT RightLeg
			{
				OFFSET -2.22156 -6.10370 0.00000
				CHANNELS 3 Zrotation Yrotation Xrotation
				JOINT RightFoot
				{
					OFFSET -2.46840 -6.78188 0.00000
					CHANNELS 3 Zrotation Yrotation Xrotation
					JOINT RightToeBase
					{
						OFFSET -0.15659 -0.43024 1.84117
						CHANNELS 3 Zrotation Yrotation Xrotation
						End Site
						{
							OFFSET -0.00000 -0.00000 0.95587
						}
					}
				}
			}
		}
	}
	JOINT LowerBack
	{
		OFFSET 0 0 0
		CHANNELS 3 Zrotation Yrotation Xrotation
		JOINT Spine
		{
			OFFSET -0.01936 1.82120 -0.32061
			CHANNELS 3 Zrotation Yrotation Xrotation
			JOINT Spine1
			{
				OFFSET -0.00532 1.85767 -0.00071
				CHANNELS 3 Zrotation Yrotation Xrotation
				JOINT Neck
				{
					OFFSET 0 0 0
					CHANNELS 3 Zrotation Yrotation Xrotation
					JOINT Neck1
					{
						OFFSET -0.10687 1.58194 0.10810
						CHANNELS 3 Zrotation Yrotation Xrotation
						JOINT Head
						{
							OFFSET 0.15346 1.57382 -0.25612
							CHANNELS 3 Zrotation Yrotation Xrotation
							End Site
							{
								OFFSET 0.05334 1.61251 -0.10513
							}
						}
					}
				}
				JOINT LeftShoulder
				{
					OFFSET 0 0 0
					CHANNELS 3 Zrotation Yrotation Xrotation
					JOINT LeftArm
					{
						OFFSET 2.85758 0.89498 -0.01485
						CHANNELS 3 Zrotation Yrotation Xrotation
						JOINT LeftForeArm
						{
							OFFSET 4.79185 -0.00000 -0.00000
							CHANNELS 3 Zrotation Yrotation Xrotation
							JOINT LeftHand
							{
								OFFSET 2.65553 -0.00000 0.00000
								CHANNELS 3 Zrotation Yrotation Xrotation
								JOINT LeftFingerBase
								{
									OFFSET 0 0 0
									CHANNELS 3 Zrotation Yrotation Xrotation
									JOINT LeftHandIndex1
									{
										OFFSET 0.74390 -0.00000 0.00000
										CHANNELS 3 Zrotation Yrotation Xrotation
										End Site
										{
											OFFSET 0.59975 -0.00000 0.00000
										}
									}
								}
								JOINT LThumb
								{
									OFFSET 0 0 0
									CHANNELS 3 Zrotation Yrotation Xrotation
									End Site
									{
										OFFSET 0.60891 -0.00000 0.60891
									}
								}
							}
						}
					}
				}
				JOINT RightShoulder
				{
					OFFSET 0 0 0
					CHANNELS 3 Zrotation Yrotation Xrotation
					JOINT RightArm
					{
						OFFSET -2.93906 0.88031 0.02490
						CHANNELS 3 Zrotation Yrotation Xrotation
						JOINT RightForeArm
						{
							OFFSET -4.77254 -0.00000 -0.00000
							CHANNELS 3 Zrotation Yrotation Xrotation
							JOINT RightHand
							{
								OFFSET -2.75995 -0.00000 -0.00000
								CHANNELS 3 Zrotation Yrotation Xrotation
								JOINT RightFingerBase
								{
									OFFSET 0 0 0
									CHANNELS 3 Zrotation Yrotation Xrotation
									JOINT RightHandIndex1
									{
										OFFSET -0.70162 -0.00000 0.00000
										CHANNELS 3 Zrotation Yrotation Xrotation
										End Site
										{
											OFFSET -0.56566 -0.00000 0.00000
										}
									}
								}
								JOINT RThumb
								{
									OFFSET 0 0 0
									CHANNELS 3 Zrotation Yrotation Xrotation
									End Site
									{
										OFFSET -0.57430 -0.00000 0.57430
									}
								}
							}
						}
					}
				}
			}
		}
	}
}
MOTION
Frames: 6
Frame Time: .0083333
1.1620 14.6507 -0.9370 -3.9560 8.8877 10.4642 0.0000 0.0000 0.0000 -11.9574 -11.9995 -41.5447 9.9722 17.3942 59.3954 0.6834 -15.1103 -16.9761 0.0081 -0.5825 -1.6008 0.0000 0.0000 0.0000 13.2688 1.3008 -38.0929 -8.8120 -16.6852 55.4375 -1.7772 2.3818 -24.5711 -1.4359 7.5761 -21.4338 -5.2188 2.6896 28.2880 -3.5981 1.0235 -3.5391 -1.6115 0.7361 -19.4159 -14.1828 0.6039 -6.8077 21.9337 1.8193 -1.3646 9.3015 1.2672 0.4728 0.0000 0.0000 0.0000 -31.9859 25.4557 66.0406 147.0257 -43.3103 -106.5955 -0.0000 0.0000 -82.5882 -29.6436 37.3863 -19.0621 -7.1250 0.0000 -0.0000 -66.6443 55.4309 -24.7202 0.0000 0.0000 0.0000 50.7877 -46.2028 54.6704 -151.2835 39.7675 -109.4211 0.0000 -0.0000 -42.2365 39.1667 9.4064 7.5836 7.1250 -0.0000 -0.0000 39.9679 -15.3311 39.6134
1.1688 14.6476 -0.9399 -4.0143 8.8683 10.6608 0.0000 0.0000 0.0000 -11.8568 -11.9880 -41.8734 10.0112 17.4162 59.5259 0.6709 -15.2300 -16.9229 0.0045 -0.4342 -1.1931 0.0000 0.0000 0.0000 13.2918 1.2258 -38.4130 -8.8292 -16.6965 55.4974 -1.7749 2.5545 -24.5156 -1.4427 7.5934 -21.4859 -5.2969 2.6772 28.5067 -3.5478 0.9532 -3.8104 -1.5013 0.7219 -19.8754 -13.5977 0.4867 -7.5714 21.4820 1.5597 -0.5238 9.0487 1.1918 0.8935 0.0000 0.0000 0.0000 -32.4808 25.9326 66.0568 147.0474 -43.2936 -106.6104 -0.0000 0.0000 -82.6551 -29.8098 37.3983 -19.1865 -7.1250 0.0000 -0.0000 -66.7822 55.4013 -24.7595 0.0000 0.0000 0.0000 51.0152 -46.1239 54.7447 -151.2234 39.8214 -109.3826 0.0000 -0.0000 -42.3597 39.5388 9.2706 7.5748 7.1250 -0.0000 -0.0000 40.1019 -15.2720 39.9709
1.1753 14.6420 -0.9417 -4.0406 8.9048 10.8162 0.0000 0.0000 0.0000 -11.7970 -12.0522 -42.1311 10.0438 17.4344 59.6346 0.6553 -15.3174 -16.8333 0.0017 -0.2631 -0.7228 0.0000 0.0000 0.0000 13.2913 1.1011 -38.6850 -8.8469 -16.7082 55.5593 -1.7742 2.6765 -24.4832 -1.4319 7.5661 -21.4036 -5.3323 2.6294 28.7847 -3.5275 0.8382 -4.1077 -1.4313 0.6836 -20.4025 -13.0685 0.3431 -8.6104 21.0948 1.2265 0.7501 8.8385 1.1058 1.4944 0.0000 0.0000 0.0000 -32.8641 26.2509 66.0718 146.9529 -43.3662 -106.5456 -0.0000 0.0000 -82.8461 -30.0323 37.2946 -19.3043 -7.1250 0.0000 -0.0000 -66.8217 55.2961 -24.5937 0.0000 0.0000 0.0000 51.1943 -46.0119 54.9227 -151.1708 39.8685 -109.3490 0.0000 -0.0000 -42.5624 39.9463 9.1209 7.5623 7.1250 -0.0000 -0.0000 40.2453 -15.2020 40.3683
1.1816 14.6388 -0.9421 -4.0826 8.9667 10.8976 0.0000 0.0000 0.0000 -11.7332 -12.0981 -42.2952 10.0723 17.4503 59.7299 0.6463 -15.4040 -16.7960 0.0012 -0.2225 -0.6114 0.0000 0.0000 0.0000 13.3394 0.9732 -38.8339 -8.8573 -16.7150 55.5952 -1.7711 2.5757 -24.4834 -1.4872 7.7046 -21.8203 -5.3716 2.5820 29.0851 -3.4660 0.7298 -4.3784 -1.3131 0.6525 -20.9114 -12.6128 0.2107 -9.9879 20.7546 0.8856 2.4116 8.6742 1.0437 2.2636 -0.0000 0.0000 0.0000 -33.2766 26.4751 66.1320 146.7575 -43.5156 -106.4113 -0.0000 0.0000 -83.0404 -29.8642 36.9340 -19.0360 -7.1250 0.0000 -0.0000 -66.2641 55.1327 -23.9235 -0.0000 0.0000 0.0000 51.3462 -45.8232 55.0612 -151.1232 39.9110 -109.3185 0.0000 -0.0000 -42.8660 40.2339 8.8546 7.4202 7.1250 -0.0000 -0.0000 40.3865 -15.2972 40.5390
1.1857 14.6371 -0.9412 -4.1162 9.0089 10.9978 0.0000 0.0000 0.0000 -11.6632 -12.1411 -42.4571 10.0970 17.4640 59.8120 0.6430 -15.4776 -16.8002 0.0010 -0.2006 -0.5512 0.0000 0.0000 0.0000 13.3831 0.8993 -38.9851 -8.8627 -16.7186 55.6142 -1.7654 2.5462 -24.4494 -1.5120 7.7656 -22.0044 -5.4794 2.5733 29.3318 -3.3678 0.6590 -4.6590 -1.1292 0.6494 -21.4104 -12.1287 0.0693 -11.3660 20.3049 0.5231 4.1137 8.4741 0.9663 3.0502 -0.0000 0.0000 0.0000 -33.7023 26.7003 66.2024 146.6185 -43.6213 -106.3154 -0.0000 0.0000 -83.2977 -29.8643 37.0079 -19.0664 -7.1250 0.0000 -0.0000 -66.3525 55.1738 -24.0569 -0.0000 0.0000 0.0000 51.4182 -45.6995 55.2207 -151.0441 39.9814 -109.2677 0.0000 -0.0000 -43.1895 40.4472 8.6573 7.3123 7.1250 -0.0000 -0.0000 40.4900 -15.3657 40.6667
1.1907 14.6350 -0.9397 -4.2149 9.0613 11.1021 0.0000 0.0000 0.0000 -11.5279 -12.1904 -42.6379 10.1229 17.4784 59.8983 0.6487 -15.4727 -16.8448 0.0016 -0.2548 -0.7000 0.0000 0.0000 0.0000 13.4920 0.8443 -39.1294 -8.8615 -16.7178 55.6099 -1.7631 2.5734 -24.4266 -1.5040 7.7458 -21.9446 -5.4610 2.5395 29.5609 -3.2750 0.6032 -4.9333 -1.0255 0.6376 -21.8965 -11.6624 -0.1518 -12.4581 19.7852 0.0745 5.5094 8.2405 0.8179 3.7162 0.0000 -0.0000 0.0000 -34.0701 26.9213 66.2245 146.5621 -43.6639 -106.2765 -0.0000 0.0000 -83.5638 -29.8296 37.0494 -19.0585 -7.1250 0.0000 -0.0000 -66.3765 55.2044 -24.1287 0.0000 -0.0000 0.0000 51.5189 -45.6377 55.4077 -150.9273 40.0852 -109.1925 0.0000 -0.0000 -43.4221 40.6133 8.6711 7.3663 7.1250 -0.0000 -0.0000 40.5255 -15.2623 40.8880
